<?xml version="1.0" encoding="UTF-8"?>
<svg id="Calque_2" data-name="Calque 2" xmlns="http://www.w3.org/2000/svg" viewBox="0 0 226.37 226.37">
  <defs>
    <style>
      .cls-1 {
        fill: #fff;
      }

      .cls-2 {
        fill: #8f1913;
      }
    </style>
  </defs>
  <g id="Calque_1-2" data-name="Calque 1">
    <circle class="cls-2" cx="113.19" cy="113.19" r="113.19"/>
    <g>
      <path class="cls-1" d="M161.14,156.42c.45.46,1,.78,1.64,1.11l.08-10.06,2.48.03c2.78.03,5.28-1.75,5.28-4.82v-72.67c0-2.53-2.09-4.66-4.68-4.66h-83.44c-3.9,0-4.53,2.34-5.46,5.19l-.03,26.55-4.28.14.02-27.94c0-2.61,1.66-5.3,3.87-6.59,1.2-.7,2.99-1.68,4.53-1.68l85.76.1c4.71,0,8.04,4.81,8.03,9.08l-.04,72.97c0,4.68-3.83,8.09-8.26,8.62l-.07,10.86c0,.6-.85,1.44-1.34,1.55-1.17.28-2.97-1.18-3.65-1.87l-10.35-10.51-5.5-.08v-4.26s6.49-.01,6.49-.01l8.91,8.97Z"/>
      <path class="cls-1" d="M93.92,143.68c-2.04,4.4-6.23,7.54-11.24,7.9-3.2.23-6.4.11-9.89.1l-.03-23.06c3.34-.03,6.65-.14,9.92.09,4.97.35,9.05,3.38,11.09,7.58,1.25,2.57,1.44,4.59.15,7.39ZM88.87,139.64c-.51-5.72-7.18-7.03-11.84-6.31v13.63c2.47.15,4.78.32,6.96-.49,2.83-1.04,5.17-3.54,4.87-6.83Z"/>
      <path class="cls-1" d="M94.77,123.58l-4.66.08-.14-13.32-6.25,5.56-6.54-5.84-.17,13.65-4.27-.15v-21.82c.83-.4,1.71.04,2.4.62l3,2.52,5.64,4.98,8.76-7.99c.41-.37,1.65-.28,2.22-.12v21.83Z"/>
      <path class="cls-1" d="M132.24,136.49v14.73s-3.78.14-3.78.14l-.45-1.31c-3.23,2.57-7.94,2.16-10.72-.91-2.73-3.02-2.73-7.7.12-10.71s7.41-3.28,10.81-.74l.78-1.26,3.24.06ZM123.6,147.82c2.4.05,4-2.03,3.94-4.1s-1.64-3.84-3.82-3.84-3.8,1.86-3.84,3.84,1.41,4.05,3.73,4.1Z"/>
      <path class="cls-1" d="M119.97,117.58c.36,1.25,1.32,2.09,2.57,2.52.99.35,2.38-.37,3.41-.94l3.48,2.11c-3.42,3.43-8.78,3.9-12.15.14-2.79-3.11-2.63-7.82.13-10.71,3.02-3.17,7.59-3.17,11.11-.56,2.26,1.67,3.25,4.51,2.74,7.39l-11.29.05ZM126.78,114.92c-.44-1.78-1.94-2.84-3.55-2.79-1.45.04-2.86.98-3.35,2.79h6.9Z"/>
      <path class="cls-1" d="M101.86,117.58c.21,1.22,1.22,2.11,2.28,2.46,1.13.38,2.27.01,3.49-.95l3.26,2.15c-2.91,3.67-8.26,3.65-11.41.61-3.34-3.22-3.18-8.51.1-11.53,3.46-3.18,8.53-2.57,11.71.88,1.57,1.7,2.2,3.89,1.73,6.34l-11.18.04ZM108.52,114.91c-.59-2.16-2.06-2.82-3.71-2.76-1.32.05-2.68,1.05-3.15,2.74h6.86Z"/>
      <path class="cls-1" d="M101.86,145.27c.22,1.18,1.24,2.11,2.24,2.42,1.24.39,2.35-.02,3.61-.89l3.2,2.11c-2.87,3.65-8.23,3.7-11.44.62s-3.18-8.49.09-11.5c3.49-3.21,8.55-2.62,11.74.85,1.56,1.7,2.21,3.89,1.73,6.35l-11.17.05ZM108.49,142.6c-.37-1.91-1.93-2.88-3.65-2.77-1.35.08-2.75,1.02-3.12,2.76h6.77Z"/>
      <polygon class="cls-1" points="141.02 123.55 136.61 123.63 136.58 112.85 133.51 112.77 133.45 108.89 136.57 108.72 136.62 103.25 140.92 103.27 141 108.75 144.41 108.83 144.41 112.78 141.03 112.84 141.02 123.55"/>
      <polygon class="cls-1" points="141.03 151.63 136.59 151.66 136.59 128.06 141.02 127.98 141.03 151.63"/>
    </g>
    <g>
      <path class="cls-1" d="M48.68,142.86h-.08l-3.95-11.86-11.86,11.86h-.1l-4.92-4.92c-.06-.06-.19-.13-.24-.16v-.16l.26-.17,11.63-11.64-11.85-3.98,33.89-12.83-12.71,33.52c-.05.13-.06.26-.07.35ZM32.77,139.38l12.95-12.91,3.06,9.04,8.45-22.29-22.31,8.45,9.06,3.06-12.96,12.96,1.75,1.69Z"/>
      <polygon class="cls-1" points="66.72 105.36 63.24 108.83 61.5 107.1 64.97 103.62 66.72 105.36"/>
      <rect class="cls-1" x="55.89" y="100.89" width="2.46" height="4.92" transform="translate(-.27 .15) rotate(-.15)"/>
      <rect class="cls-1" x="64.58" y="111.96" width="4.92" height="2.46"/>
      <rect class="cls-1" x="48.97" y="103.77" width="2.46" height="4.92" transform="translate(-60.44 66.69) rotate(-45.04)"/>
      <polygon class="cls-1" points="64.98 122.75 61.5 119.27 63.24 117.54 66.71 121.01 64.98 122.75"/>
    </g>
  </g>
</svg>